<svg width="406" height="141" viewBox="0 0 406 141" fill="none" xmlns="http://www.w3.org/2000/svg">
<mask id="mask0_714_377" style="mask-type:luminance" maskUnits="userSpaceOnUse" x="0" y="0" width="406" height="104">
<path d="M0.943359 0.84375H405.256V103.224H0.943359V0.84375Z" fill="white"/>
</mask>
<g mask="url(#mask0_714_377)">
<mask id="mask1_714_377" style="mask-type:luminance" maskUnits="userSpaceOnUse" x="0" y="0" width="406" height="104">
<path d="M385.803 103.224H20.235C9.60482 103.224 0.943359 94.5625 0.943359 83.9323V20.1406C0.943359 9.51042 9.60482 0.84375 20.235 0.84375H385.803C396.433 0.84375 405.094 9.51042 405.094 20.1406V83.9323C405.094 94.5625 396.433 103.224 385.803 103.224Z" fill="white"/>
</mask>
<g mask="url(#mask1_714_377)">
<path d="M0.943359 0.84375H405.256V103.224H0.943359V0.84375Z" fill="#733CA5"/>
</g>
</g>
<mask id="mask2_714_377" style="mask-type:luminance" maskUnits="userSpaceOnUse" x="24" y="102" width="234" height="2">
<path d="M24.291 102.688H257.291V103.667H24.291V102.688Z" fill="white"/>
</mask>
<g mask="url(#mask2_714_377)">
<path d="M227.906 101.521C227.906 101.521 163.38 103.271 140.645 103.271C119.749 103.271 53.3796 101.521 53.3796 101.521C52.4264 101.521 51.4785 101.479 50.5306 101.385C49.5827 101.292 48.64 101.151 47.7077 100.964C46.7702 100.776 45.8483 100.547 44.9368 100.271C44.0254 99.9948 43.1296 99.6719 42.2493 99.3073C41.3691 98.9427 40.5098 98.5365 39.666 98.0885C38.8275 97.6406 38.0098 97.151 37.2181 96.6198C36.4264 96.0938 35.666 95.526 34.9264 94.9219C34.1921 94.3177 33.4837 93.6771 32.8118 93.0052C32.14 92.3281 31.4993 91.625 30.8952 90.8906C30.291 90.151 29.7233 89.3854 29.1973 88.5938C28.666 87.8021 28.1764 86.9896 27.7285 86.1458C27.2806 85.3073 26.8691 84.4479 26.5046 83.5677C26.14 82.6875 25.8223 81.7917 25.5462 80.8802C25.2702 79.9688 25.0358 79.0469 24.8535 78.1094C24.666 77.1771 24.5254 76.2344 24.4316 75.2865C24.3379 74.3385 24.291 73.3906 24.291 72.4375V41.6042C24.291 40.651 24.3379 39.6979 24.4316 38.75C24.5254 37.8021 24.666 36.8594 24.8535 35.9271C25.0358 34.9948 25.2702 34.0677 25.5462 33.1563C25.8223 32.2448 26.14 31.349 26.5046 30.4688C26.8691 29.5885 27.2806 28.7292 27.7285 27.8906C28.1764 27.0521 28.666 26.2344 29.1973 25.4427C29.7233 24.651 30.291 23.8854 30.8952 23.151C31.4993 22.4115 32.14 21.7083 32.8118 21.0365C33.4837 20.3594 34.1921 19.724 34.9264 19.1146C35.666 18.5104 36.4264 17.9479 37.2181 17.4167C38.0098 16.8854 38.8275 16.3958 39.666 15.9479C40.5098 15.5 41.3691 15.0937 42.2493 14.7292C43.1296 14.3646 44.0254 14.0417 44.9368 13.7656C45.8483 13.4896 46.7702 13.2604 47.7077 13.0729C48.64 12.8854 49.5827 12.75 50.5306 12.6563C51.4785 12.5625 52.4264 12.5156 53.3796 12.5156C53.3796 12.5156 128.671 10.1875 143.551 10.1875C172.301 10.1875 227.906 12.5156 227.906 12.5156C228.859 12.5156 229.812 12.5625 230.76 12.6563C231.708 12.75 232.65 12.8854 233.583 13.0729C234.515 13.2604 235.442 13.4896 236.354 13.7656C237.265 14.0417 238.161 14.3646 239.041 14.7292C239.921 15.0937 240.781 15.5 241.619 15.9479C242.458 16.3958 243.275 16.8854 244.067 17.4167C244.859 17.9479 245.624 18.5104 246.359 19.1146C247.098 19.724 247.801 20.3594 248.479 21.0365C249.15 21.7083 249.791 22.4115 250.395 23.151C250.999 23.8854 251.562 24.651 252.093 25.4427C252.624 26.2344 253.114 27.0521 253.562 27.8906C254.01 28.7292 254.416 29.5885 254.781 30.4688C255.145 31.349 255.468 32.2448 255.744 33.1563C256.02 34.0677 256.249 34.9948 256.437 35.9271C256.624 36.8594 256.76 37.8021 256.854 38.75C256.947 39.6979 256.994 40.651 256.994 41.6042V72.4375C256.994 73.3906 256.947 74.3385 256.854 75.2865C256.76 76.2344 256.624 77.1771 256.437 78.1094C256.249 79.0469 256.02 79.9688 255.744 80.8802C255.468 81.7917 255.145 82.6875 254.781 83.5677C254.416 84.4479 254.01 85.3073 253.562 86.1458C253.114 86.9896 252.624 87.8021 252.093 88.5938C251.562 89.3854 250.999 90.151 250.395 90.8906C249.791 91.625 249.15 92.3281 248.479 93.0052C247.801 93.6771 247.098 94.3177 246.359 94.9219C245.624 95.526 244.859 96.0938 244.067 96.6198C243.275 97.151 242.458 97.6406 241.619 98.0885C240.781 98.5365 239.921 98.9427 239.041 99.3073C238.161 99.6719 237.265 99.9948 236.354 100.271C235.442 100.547 234.515 100.776 233.583 100.964C232.65 101.151 231.708 101.292 230.76 101.385C229.812 101.479 228.859 101.521 227.906 101.521Z" fill="#733CA5"/>
</g>
<mask id="mask3_714_377" style="mask-type:luminance" maskUnits="userSpaceOnUse" x="34" y="102" width="78" height="39">
<path d="M34.666 102.688H111.999V140.688H34.666V102.688Z" fill="white"/>
</mask>
<g mask="url(#mask3_714_377)">
<path d="M46.4002 76.5054C46.4002 76.5054 68.5877 112.709 36.5668 135.5C36.296 135.693 36.0668 135.927 35.8741 136.203C35.6866 136.479 35.5512 136.776 35.4679 137.099C35.3845 137.422 35.3585 137.75 35.3897 138.084C35.421 138.417 35.5095 138.729 35.6502 139.031C35.796 139.334 35.9887 139.604 36.2231 139.839C36.4627 140.073 36.7335 140.255 37.0356 140.396C37.3429 140.537 37.6606 140.615 37.9939 140.646C38.322 140.672 38.6502 140.641 38.9731 140.552C63.5877 133.807 103.801 116.761 110.973 76.5054H46.4002Z" fill="#733CA5"/>
</g>
<path d="M109.613 34.1159C109.613 35.9023 111.072 36.7982 112.483 36.7982C113.947 36.7982 115.358 35.9023 115.358 34.1159C115.358 32.3242 113.947 31.4805 112.53 31.4805C111.072 31.4805 109.613 32.3711 109.613 34.1159ZM110.176 40.3763H114.79V66.1367H110.176V40.3763Z" fill="white"/>
<path d="M134.896 32.8921H123.078V66.1369H134.896C145.677 66.1369 151.094 57.9442 151.094 49.7046C151.094 41.4598 145.677 32.8921 134.896 32.8921ZM134.896 61.3817H127.833V37.6473H134.896C142.526 37.6473 146.385 43.8608 146.385 49.7046C146.385 55.5431 142.526 61.3817 134.896 61.3817Z" fill="white"/>
<path d="M175.847 32.8452H172.175L154.701 55.3556V58.6942H171.139V66.1369H175.847V58.6942H178.529V54.0796H175.847V32.8452ZM171.232 41.0848V54.1733H160.92L171.232 41.0848Z" fill="white"/>
<path d="M190.622 43.814V40.2358H186.008V66.1369H190.622V52.2931C190.622 47.2983 193.68 44.5223 197.732 44.5223C201.971 44.5223 203.336 48.241 203.336 51.8192V66.1369H207.951V51.7723C207.951 47.6317 210.211 44.5223 214.732 44.5223C219.159 44.5223 220.055 48.1004 220.055 51.6785V66.1369H224.669V51.6317C224.669 45.1838 221.607 40.2358 214.591 40.2358C210.867 40.2827 207.997 41.84 206.445 44.6629C204.56 41.0848 201.357 40.2358 197.779 40.2358C194.81 40.2358 192.362 41.2723 190.622 43.814Z" fill="white"/>
<path d="M256.76 52.2931C256.245 44.2879 250.026 40.2827 243.719 40.2827C236.984 40.2827 230.484 44.6629 230.484 53.4233C230.484 62.1838 237.078 66.6056 243.625 66.6056C248.849 66.6056 254.078 63.8296 256.005 58.2723H251.25C249.745 61.1473 246.823 62.5119 243.672 62.5119C239.854 62.5119 235.099 59.4963 235.099 54.5067H256.667C256.76 54.0796 256.807 53.6108 256.807 53.0952C256.807 52.8088 256.807 52.5744 256.76 52.2931ZM251.911 50.689H235.286C236.229 46.1681 239.995 44.3348 243.719 44.3348C247.391 44.3348 251.016 46.1213 251.911 50.689Z" fill="white"/>
<path d="M274.791 40.944H270.885V47.3971H274.697V66.1367H282.093V47.3971H287.458V40.944H282.187C282.093 38.7305 283.645 38.069 285.39 38.069C286.093 38.069 286.848 38.1628 287.505 38.3555L287.744 32.7982C286.473 32.5117 285.15 32.3711 283.88 32.3711C278.89 32.3711 274.369 34.6315 274.791 40.944Z" fill="white"/>
<path d="M290.936 35.0589C290.936 37.835 293.196 39.1995 295.456 39.1995C297.623 39.1995 299.837 37.835 299.837 35.0589C299.837 32.137 297.576 30.7256 295.316 30.7256C293.149 30.7256 290.936 32.1839 290.936 35.0589ZM291.644 40.6631H299.175V66.137H291.644V40.6631Z" fill="white"/>
<path d="M311.087 43.2046V40.6629H303.598V66.1369H311.462V52.2931C311.462 49.0431 314.098 47.1577 316.311 47.1577C318.337 47.1577 320.27 48.715 320.27 52.1525V66.1369H327.801V52.1056C327.848 45.7463 325.874 40.3765 318.618 40.2827C315.889 40.2827 312.874 40.9442 311.087 43.2046Z" fill="white"/>
<path d="M344.079 40.2358C335.793 40.2358 331.746 46.0744 331.746 53.0483C331.746 60.064 335.934 66.465 343.986 66.465C346.434 66.465 348.934 65.7619 350.673 63.5952V66.1369H358.069V32.939H350.673V42.9702C348.98 41.0379 346.579 40.2358 344.079 40.2358ZM344.882 59.3556C341.116 59.3556 339.184 56.2931 339.184 53.2358C339.184 50.1265 341.069 47.064 344.882 47.064C348.085 47.064 350.673 49.8452 350.673 53.2358C350.673 56.6265 348.085 59.3556 344.882 59.3556Z" fill="white"/>
<mask id="mask4_714_377" style="mask-type:luminance" maskUnits="userSpaceOnUse" x="84" y="36" width="4" height="4">
<path d="M84.291 36.5522H87.1087V39.0366H84.291V36.5522Z" fill="white"/>
</mask>
<g mask="url(#mask4_714_377)">
<mask id="mask5_714_377" style="mask-type:luminance" maskUnits="userSpaceOnUse" x="84" y="36" width="4" height="4">
<path d="M87.098 37.4999C85.9001 39.4999 84.697 39.0989 84.4001 38.6978C84.197 38.302 84.4001 36.9999 84.8011 36.6978C85.197 36.401 86.8011 36.802 86.8011 36.802" fill="white"/>
</mask>
<g mask="url(#mask5_714_377)">
<path d="M80.4004 32.6978H91.2077V43.3019H80.4004V32.6978Z" fill="#733CA5"/>
</g>
</g>
<mask id="mask6_714_377" style="mask-type:luminance" maskUnits="userSpaceOnUse" x="83" y="31" width="13" height="10">
<path d="M83.5879 31.125H95.1296V40.0104H83.5879V31.125Z" fill="white"/>
</mask>
<g mask="url(#mask6_714_377)">
<mask id="mask7_714_377" style="mask-type:luminance" maskUnits="userSpaceOnUse" x="83" y="31" width="13" height="10">
<path d="M84.4008 37.1979C93.5987 31.099 94.4008 31.3021 94.6977 31.6979C95.0987 32.099 95.0987 33.1979 94.8018 33.6979C94.5987 34.099 93.9008 34.401 93.4997 34.401C92.9997 34.401 92.3018 34.099 92.0987 33.6979C91.8018 33.3021 91.8018 32.099 92.1977 31.6979C92.4997 31.3021 93.5987 31 94.0987 31.3021C94.5987 31.5 95.1977 32.3021 95.0987 33C94.6977 34.6979 88.4008 39.099 86.3018 39.8021C85.1977 40.099 83.9997 40.099 83.6977 39.599C83.4008 39.1979 84.4008 37.1979 84.4008 37.1979Z" fill="white"/>
</mask>
<g mask="url(#mask7_714_377)">
<path d="M79.6973 27.3022H99.0879V43.9012H79.6973V27.3022Z" fill="#733CA5"/>
</g>
</g>
<mask id="mask8_714_377" style="mask-type:luminance" maskUnits="userSpaceOnUse" x="83" y="30" width="13" height="11">
<path d="M83.0371 30.1094H95.9069V40.1615H83.0371V30.1094Z" fill="white"/>
</mask>
<g mask="url(#mask8_714_377)">
<mask id="mask9_714_377" style="mask-type:luminance" maskUnits="userSpaceOnUse" x="83" y="30" width="13" height="11">
<path d="M83.6983 37.5C94.5004 30 95.3025 30.0989 95.5994 30.5989C95.9014 31 95.6983 32.5989 95.3025 32.901C94.9014 33.1979 93.3025 33 93.0004 32.5C92.6983 32.0989 93.0004 30.5 93.5004 30.1979C93.9014 29.901 95.4014 30.401 95.8025 30.901C96.0004 31.302 95.9014 32.0989 95.4014 32.802C94.3025 34.6979 87.5004 39.802 85.3025 40.0989C84.3025 40.302 83.3025 39.901 83.0994 39.401C82.8025 39 83.6983 37.5 83.6983 37.5Z" fill="white"/>
</mask>
<g mask="url(#mask9_714_377)">
<path d="M79.0996 26.0991H99.7715V44.0991H79.0996V26.0991Z" fill="#733CA5"/>
</g>
</g>
<mask id="mask10_714_377" style="mask-type:luminance" maskUnits="userSpaceOnUse" x="84" y="36" width="4" height="4">
<path d="M84.8496 36.9531H87.709V39.4375H84.8496V36.9531Z" fill="white"/>
</mask>
<g mask="url(#mask10_714_377)">
<mask id="mask11_714_377" style="mask-type:luminance" maskUnits="userSpaceOnUse" x="84" y="36" width="4" height="4">
<path d="M87.6984 37.9013C86.4016 39.9013 85.1984 39.5002 85.0005 39.0992C84.6984 38.6981 84.9016 37.4013 85.3026 37.0992C85.6984 36.8023 87.3026 37.1981 87.3026 37.1981" fill="white"/>
</mask>
<g mask="url(#mask11_714_377)">
<path d="M81 33.0991H91.8073V43.6981H81V33.0991Z" fill="#733CA5"/>
</g>
</g>
<mask id="mask12_714_377" style="mask-type:luminance" maskUnits="userSpaceOnUse" x="83" y="29" width="12" height="12">
<path d="M83.2754 29.7759H94.9733V40.9998H83.2754V29.7759Z" fill="white"/>
</mask>
<g mask="url(#mask12_714_377)">
<mask id="mask13_714_377" style="mask-type:luminance" maskUnits="userSpaceOnUse" x="83" y="29" width="12" height="12">
<path d="M83.8011 38.1976C93.697 29.6976 94.4991 29.9997 94.8011 30.4007C95.098 30.9007 94.9001 32.4997 94.4001 32.8018C93.9991 32.9997 91.9991 32.3018 91.9001 31.8018C91.8011 31.3018 93.197 29.8018 93.697 29.8018C94.197 29.9007 95.098 31.3018 94.9001 32.1976C94.598 33.9007 90.197 36.9997 88.197 38.5986C86.9001 39.5986 85.697 40.9997 84.8011 40.9997C84.197 40.9997 83.4991 40.4007 83.3011 39.9007C83.197 39.4997 83.8011 38.1976 83.8011 38.1976Z" fill="white"/>
</mask>
<g mask="url(#mask13_714_377)">
<path d="M79.3008 25.8018H98.8737V44.9997H79.3008V25.8018Z" fill="#733CA5"/>
</g>
</g>
<mask id="mask14_714_377" style="mask-type:luminance" maskUnits="userSpaceOnUse" x="81" y="30" width="12" height="10">
<path d="M81.9531 30.4844H92.974V39.5156H81.9531V30.4844Z" fill="white"/>
</mask>
<g mask="url(#mask14_714_377)">
<mask id="mask15_714_377" style="mask-type:luminance" maskUnits="userSpaceOnUse" x="81" y="30" width="12" height="10">
<path d="M82.3015 36.802C91.6973 30.1979 92.4994 30.5989 92.8015 31.0989C92.9994 31.5989 92.4994 32.9999 92.0984 33.302C91.6973 33.5989 90.9005 33.5989 90.5984 33.302C90.0984 32.9999 89.5984 31.9999 89.8015 31.4999C89.9994 30.9999 91.8015 30.302 92.3015 30.5989C92.6973 30.802 93.0984 31.6979 92.9005 32.401C92.4005 34.0989 86.9994 37.901 84.9005 38.802C83.8015 39.302 82.4994 39.6979 82.0984 39.302C81.6973 38.9999 82.3015 36.802 82.3015 36.802Z" fill="white"/>
</mask>
<g mask="url(#mask15_714_377)">
<path d="M78.0977 26.3022H96.8893V43.3022H78.0977V26.3022Z" fill="#733CA5"/>
</g>
</g>
<mask id="mask16_714_377" style="mask-type:luminance" maskUnits="userSpaceOnUse" x="83" y="32" width="13" height="11">
<path d="M83.4785 32.4688H95.4837V42.8177H83.4785V32.4688Z" fill="white"/>
</mask>
<g mask="url(#mask16_714_377)">
<mask id="mask17_714_377" style="mask-type:luminance" maskUnits="userSpaceOnUse" x="83" y="32" width="13" height="11">
<path d="M84.0975 40.099C94.0975 32.1979 94.8006 32.5 95.0975 32.901C95.3996 33.1979 95.4986 34 95.3996 34.401C95.1965 34.8021 94.3006 35.401 93.6965 35.5C93.3006 35.5 92.6965 35.099 92.4986 34.6979C92.1965 34.1979 92.3006 33.099 92.6965 32.6979C93.0975 32.401 94.5975 32.401 94.9986 32.8021C95.3996 33.099 95.4986 33.901 95.1965 34.6979C94.3996 36.599 87.9986 42.1979 85.8006 42.6979C84.8996 42.901 83.8996 42.599 83.5975 42.099C83.3006 41.6979 84.0975 40.099 84.0975 40.099Z" fill="white"/>
</mask>
<g mask="url(#mask17_714_377)">
<path d="M79.5977 28.3022H99.3633V46.6981H79.5977V28.3022Z" fill="#733CA5"/>
</g>
</g>
<mask id="mask18_714_377" style="mask-type:luminance" maskUnits="userSpaceOnUse" x="82" y="31" width="15" height="14">
<path d="M82.0098 31.6772H96.2546V45.0002H82.0098V31.6772Z" fill="white"/>
</mask>
<g mask="url(#mask18_714_377)">
<mask id="mask19_714_377" style="mask-type:luminance" maskUnits="userSpaceOnUse" x="82" y="31" width="15" height="14">
<path d="M82.1964 42.599C94.8006 31.4011 95.5974 31.6979 95.8995 32.099C96.1964 32.5 96.0974 34.099 95.6964 34.4011C95.1964 34.8021 93.5974 34.5 93.3006 34.099C92.9985 33.599 93.3006 32 93.8006 31.8021C94.3006 31.5 95.8006 31.9011 96.0974 32.4011C96.3995 32.8021 96.1964 33.5 95.8006 34.3021C94.5974 36.599 86.6964 44 84.3006 44.8021C83.3995 45.099 82.5974 45 82.1964 44.599C81.8995 44.1979 82.1964 42.599 82.1964 42.599Z" fill="white"/>
</mask>
<g mask="url(#mask19_714_377)">
<path d="M78.1973 27.6978H100.229V48.9009H78.1973V27.6978Z" fill="#733CA5"/>
</g>
</g>
<mask id="mask20_714_377" style="mask-type:luminance" maskUnits="userSpaceOnUse" x="80" y="25" width="15" height="15">
<path d="M80.3438 25.3594H94.1406V39.6563H80.3438V25.3594Z" fill="white"/>
</mask>
<g mask="url(#mask20_714_377)">
<mask id="mask21_714_377" style="mask-type:luminance" maskUnits="userSpaceOnUse" x="80" y="25" width="15" height="15">
<path d="M80.4995 37.198C92.8016 25.3022 93.5985 25.5001 93.9005 25.9011C94.1974 26.4011 94.0985 27.9011 93.6974 28.3022C93.3016 28.5991 91.6974 28.4011 91.4005 28.0001C90.9995 27.5001 91.3016 26.0001 91.8016 25.5991C92.1974 25.3022 93.4005 25.4011 93.6974 25.8022C94.0985 26.198 94.1974 27.198 93.8016 28.0991C92.8016 30.698 84.9005 38.5991 82.4995 39.5001C81.6974 39.8022 80.9005 39.5991 80.4995 39.198C80.1974 38.9011 80.4995 37.198 80.4995 37.198Z" fill="white"/>
</mask>
<g mask="url(#mask21_714_377)">
<path d="M76.5 21.5991H97.901V43.5835H76.5V21.5991Z" fill="#733CA5"/>
</g>
</g>
<mask id="mask22_714_377" style="mask-type:luminance" maskUnits="userSpaceOnUse" x="84" y="30" width="16" height="16">
<path d="M84.0625 30.9478H99.7188V45.1509H84.0625V30.9478Z" fill="white"/>
</mask>
<g mask="url(#mask22_714_377)">
<mask id="mask23_714_377" style="mask-type:luminance" maskUnits="userSpaceOnUse" x="84" y="30" width="16" height="16">
<path d="M84.4012 42.5C98.0002 31 98.9012 31.198 99.4012 31.5C99.6981 31.8021 99.8022 32.599 99.5991 33C99.4012 33.5 98.5991 34.099 98.0002 34.198C97.5991 34.198 96.9012 33.8021 96.6981 33.4011C96.5002 33 96.5991 31.9011 96.9012 31.5C97.1981 31.099 98.4012 30.8021 98.8022 31.099C99.3022 31.4011 99.8022 32.4011 99.5002 33.3021C98.8022 35.9011 88.9012 44 86.3022 44.9011C85.4012 45.198 84.5991 45.198 84.3022 44.8021C83.9012 44.4011 84.4012 42.5 84.4012 42.5Z" fill="white"/>
</mask>
<g mask="url(#mask23_714_377)">
<path d="M80.3027 27.0991H103.74V49.0002H80.3027V27.0991Z" fill="#733CA5"/>
</g>
</g>
<mask id="mask24_714_377" style="mask-type:luminance" maskUnits="userSpaceOnUse" x="54" y="38" width="30" height="26">
<path d="M54.0254 38.3335H83.7285V63.9429H54.0254V38.3335Z" fill="white"/>
</mask>
<g mask="url(#mask24_714_377)">
<mask id="mask25_714_377" style="mask-type:luminance" maskUnits="userSpaceOnUse" x="54" y="38" width="30" height="26">
<path d="M81.9999 46.6979C73.4009 44.401 73.1978 43.0989 73.4999 42.5989C73.6978 42.1979 74.3019 41.8021 74.8019 41.901C75.9999 42.0989 79.4999 46.6979 79.9009 46.401C80.4009 46.0989 77.3019 40.901 77.6978 40.401C77.9999 40.0989 79.5988 40.6979 79.9999 41.0989C80.3019 41.5 80.3019 42.0989 80.1978 42.8021C80.1978 44.5989 79.4999 50 78.5988 51.3021C78.1978 51.901 77.6978 52.0989 77.1978 52.1979C76.5988 52.3021 75.9009 52 75.1978 51.5989C74.0988 50.901 71.5988 48.6979 71.6978 48C71.8019 47.5989 73.0988 47 73.6978 47.3021C74.8019 47.6979 76.6978 52 76.5988 53.401C76.4999 54.1979 75.9999 54.8021 75.4009 55.0989C74.9009 55.401 73.9999 55.3021 73.1978 55.0989C72.4009 54.6979 70.6978 53.5 70.6978 52.901C70.6978 52.5 71.9009 51.5989 72.4009 51.8021C73.0988 52.0989 73.4009 55.6979 73.4999 56.901C73.4999 57.5989 73.5988 58 73.4009 58.401C72.9999 58.901 72.0988 59.5989 71.3019 59.5C69.5988 59.1979 64.6978 55.1979 64.4999 53.5989C64.4009 52.6979 65.4009 51.5989 65.9999 51.401C66.3019 51.1979 66.9009 51.401 67.1978 51.6979C67.5988 52 67.8019 53.901 67.8019 53.901C67.8019 53.901 67.3019 52.5 67.4999 52.3021C67.6978 52.0989 68.9009 53 69.3019 52.6979C69.9999 52.0989 68.3019 46.901 68.9999 46.0989C69.4009 45.5989 70.4999 45.5989 70.9999 45.8021C71.4999 46.0989 71.6978 46.5 71.9009 47.1979C72.4999 49.0989 72.3019 56.3021 71.6978 58.3021C71.4009 59.1979 71.0988 59.6979 70.5988 60C70.0988 60.1979 69.4999 60.401 68.8019 60.0989C67.4009 59.6979 63.0988 56.401 63.3019 55.6979C63.4999 55.3021 65.5988 54.901 66.4009 55.3021C67.1978 55.6979 67.9009 57.401 68.1978 58.5989C68.4009 59.8021 68.4999 61.5 67.9009 62.401C67.4009 63.1979 65.9999 63.901 64.9999 63.901C63.8019 63.901 62.4999 63.3021 61.3019 62.1979C58.9009 59.8021 53.8019 50.3021 54.3019 48.3021C54.4009 47.6979 55.0988 47.401 55.5988 47.3021C55.9999 47.1979 56.6978 47.3021 57.1978 47.8021C58.1978 48.901 57.8019 54.3021 59.4009 56C60.8019 57.5989 65.5988 57.6979 65.6978 58.401C65.6978 58.8021 64.6978 59.5 63.9999 59.401C62.4999 59.0989 58.3019 52.5 57.8019 50.5C57.4999 49.5989 57.4999 48.901 57.9009 48.5C58.3019 48.0989 59.6978 47.8021 60.1978 48.0989C60.5988 48.401 60.0988 49.8021 60.5988 50.5C61.5988 51.6979 64.9999 52.5989 66.9999 53C68.6978 53.401 71.6978 53.8021 71.9009 53.401C71.9999 53.0989 69.4009 51.901 69.4999 51.5C69.5988 51.1979 71.3019 50.6979 71.9009 51.0989C72.8019 51.6979 73.4009 55.1979 73.1978 56.6979C73.0988 57.6979 72.6978 58.6979 72.0988 59.0989C71.6978 59.5 71.1978 59.5 70.5988 59.5C69.5988 59.401 68.0988 58.6979 67.0988 57.901C66.0988 57.0989 64.8019 55.401 64.9009 54.5989C64.9009 54.0989 65.4009 53.5 65.8019 53.3021C66.3019 53.0989 67.1978 53.1979 67.5988 53.5C67.9999 53.8021 68.4009 54.5 68.3019 55C68.1978 55.5 67.4999 56.401 66.9999 56.5989C66.4999 56.6979 65.6978 56.5 65.4009 56.1979C64.9999 55.8021 64.6978 55.0989 64.9009 54.5989C64.9999 54.0989 65.8019 53.3021 66.4009 53.1979C66.8019 53.0989 67.5988 53.401 67.9009 53.6979C68.1978 54.0989 68.4009 54.901 68.1978 55.3021C68.0988 55.8021 67.5988 56.401 67.0988 56.5C66.5988 56.6979 65.6978 56.5 65.4009 56.0989C64.9999 55.8021 64.8019 55.0989 64.9009 54.5989C64.9009 54.0989 65.4009 53.5 65.8019 53.3021C66.3019 53.0989 66.8019 53.1979 67.4009 53.401C68.4009 53.6979 70.9009 55.3021 70.9999 56.0989C70.9999 56.5 70.0988 57.401 69.8019 57.3021C69.0988 57.0989 68.4009 51.401 68.9009 50C69.0988 49.3021 69.6978 48.6979 70.3019 48.5989C70.9009 48.5 71.9009 49 72.4009 49.5C73.0988 50.1979 73.6978 51.401 73.9009 52.401C74.0988 53.5 74.1978 55.3021 73.4999 56C72.5988 57 70.0988 56.901 68.0988 56.6979C65.5988 56.401 61.5988 54.901 59.8019 53.5989C58.6978 52.6979 57.8019 51.5989 57.5988 50.5989C57.4009 49.901 57.4999 48.901 57.9009 48.5C58.4009 48.0989 59.5988 47.901 60.4999 48.401C62.3019 49.1979 65.4009 54.0989 66.3019 56.5C66.9009 58.0989 67.3019 60 66.8019 60.8021C66.3019 61.5 65.0988 61.6979 63.9999 61.5989C61.9999 61.401 57.8019 59.8021 56.1978 57.901C54.6978 56.3021 54.1978 53.401 54.0988 51.5C53.9999 50.0989 54.0988 48.1979 54.8019 47.6979C55.3019 47.1979 56.3019 47.3021 57.1978 47.8021C59.3019 49 64.5988 60 64.8019 59.901C64.9009 59.8021 61.3019 54.8021 61.6978 53.5989C61.9999 52.8021 63.4999 52.1979 64.4009 52.3021C65.5988 52.401 67.6978 54.3021 68.1978 55.1979C68.4999 55.8021 68.3019 57 68.3019 57C68.3019 57 67.4999 48.901 68.4009 47.1979C68.9009 46.3021 69.9999 45.5 70.5988 45.6979C71.4999 45.901 72.4009 49 72.6978 50.5C72.9999 51.8021 72.9999 53.1979 72.5988 54.1979C72.3019 54.901 71.9009 55.6979 71.1978 56.0989C70.0988 56.5 67.4999 55.8021 66.4009 55.5C65.8019 55.3021 65.3019 55.1979 64.9999 54.8021C64.5988 54.3021 64.4999 52.5 64.4999 52.5C64.5988 52.5 65.3019 54.5989 65.1978 54.5989C65.1978 54.5989 64.5988 54 64.4999 53.5989C64.4009 53.0989 64.6978 52 65.1978 51.6979C65.4999 51.401 66.1978 51.3021 66.8019 51.5C68.1978 51.901 72.4009 55.5 72.1978 56.5989C72.0988 57.1979 70.4999 58 69.9999 57.6979C69.0988 57.3021 68.4009 52.3021 68.9009 50.901C69.1978 50.0989 69.9999 49.5989 70.5988 49.5C71.0988 49.3021 71.6978 49.401 72.1978 49.6979C72.9009 50.0989 74.4009 51.901 74.1978 52.1979C74.0988 52.5 73.0988 52.5 72.5988 52.1979C71.6978 51.5989 70.5988 48.3021 70.5988 47.0989C70.5988 46.401 70.8019 45.901 71.1978 45.5989C71.5988 45.0989 72.4999 44.5989 73.1978 44.8021C74.3019 45.0989 76.8019 47.901 76.6978 48.6979C76.5988 49.0989 75.6978 49.6979 75.4999 49.5989C75.0988 49.401 75.5988 46.401 75.9999 44.6979C76.4999 42.6979 77.4009 39 78.5988 38.5C79.3019 38.0989 80.4009 38.5989 80.9999 39.0989C81.6978 39.6979 81.9999 41.0989 82.1978 42.401C82.4999 44.3021 82.8019 48.1979 81.8019 49.1979C80.9999 49.901 79.1978 49.6979 77.9999 49.1979C76.3019 48.5 73.4009 45.5 73.3019 44.1979C73.1978 43.3021 73.9009 42.3021 74.8019 41.901C76.4009 41.3021 81.4009 42.6979 82.6978 43.6979C83.4009 44.1979 83.8019 45 83.6978 45.5C83.5988 46 81.9999 46.6979 81.9999 46.6979Z" fill="white"/>
</mask>
<g mask="url(#mask25_714_377)">
<path d="M50.0996 34.5H87.7871V68H50.0996V34.5Z" fill="#733CA5"/>
</g>
</g>
<mask id="mask26_714_377" style="mask-type:luminance" maskUnits="userSpaceOnUse" x="81" y="43" width="5" height="5">
<path d="M81.8906 43.8906H85.0104V47.1406H81.8906V43.8906Z" fill="white"/>
</mask>
<g mask="url(#mask26_714_377)">
<mask id="mask27_714_377" style="mask-type:luminance" maskUnits="userSpaceOnUse" x="81" y="43" width="4" height="5">
<path d="M81.9004 45.4009C84.4004 44.1978 84.9004 46.0988 84.5983 46.4998C84.1973 46.8019 82.3014 46.4998 82.0983 46.0988C81.9004 45.5988 82.9004 43.9998 83.4004 43.9009C83.8014 43.9009 84.9004 44.9009 84.9993 45.4009C84.9993 45.9009 84.3014 46.9998 83.8014 47.0988C83.3014 47.0988 81.9004 45.6978 81.9004 45.6978" fill="white"/>
</mask>
<g mask="url(#mask27_714_377)">
<path d="M77.9004 39.9009H88.9993V51.0884H77.9004V39.9009Z" fill="#733CA5"/>
</g>
</g>
<mask id="mask28_714_377" style="mask-type:luminance" maskUnits="userSpaceOnUse" x="77" y="25" width="16" height="19">
<path d="M77.5215 25.9165H92.6621V43.4634H77.5215V25.9165Z" fill="white"/>
</mask>
<g mask="url(#mask28_714_377)">
<mask id="mask29_714_377" style="mask-type:luminance" maskUnits="userSpaceOnUse" x="77" y="25" width="16" height="19">
<path d="M77.5987 41.1975C91.3018 25.6975 92.0987 26.1975 92.4008 26.5986C92.6977 26.9996 92.5987 28.1975 92.3018 28.4996C91.9008 28.9007 90.3018 28.9996 89.9008 28.6975C89.4997 28.3017 89.4997 26.6975 89.9008 26.3017C90.3018 25.9007 91.4008 25.8017 91.9008 26.0986C92.3018 26.4007 92.5987 27.4007 92.4008 28.4007C91.5987 31.3017 82.4997 41.9996 79.9008 43.1975C79.0987 43.5986 78.3018 43.4996 77.9008 43.1975C77.4997 42.9007 77.5987 41.1975 77.5987 41.1975Z" fill="white"/>
</mask>
<g mask="url(#mask29_714_377)">
<path d="M73.5996 21.9995H96.4017V47.2912H73.5996V21.9995Z" fill="#733CA5"/>
</g>
</g>
<mask id="mask30_714_377" style="mask-type:luminance" maskUnits="userSpaceOnUse" x="78" y="27" width="11" height="16">
<path d="M78.5371 27.4688H88.6621V42.0208H78.5371V27.4688Z" fill="white"/>
</mask>
<g mask="url(#mask30_714_377)">
<mask id="mask31_714_377" style="mask-type:luminance" maskUnits="userSpaceOnUse" x="78" y="27" width="11" height="15">
<path d="M78.5996 39.9999C84.1986 29.802 85.5007 27.9009 86.5007 27.5988C87.0996 27.4009 87.6986 27.4999 88.0007 27.802C88.4017 28.0988 88.8027 29.1978 88.5996 29.6978C88.3027 30.1978 86.8027 30.9009 86.4017 30.5988C85.9017 30.4009 85.5996 28.4009 85.9017 27.9999C86.1986 27.5988 87.9017 27.5988 88.3027 27.9999C88.6986 28.4009 88.5996 29.0988 88.4017 29.9999C87.8027 32.302 82.9017 40.4009 81.0996 41.5988C80.5007 41.9999 79.8027 42.0988 79.4017 41.9009C78.9017 41.5988 78.5996 39.9999 78.5996 39.9999Z" fill="white"/>
</mask>
<g mask="url(#mask31_714_377)">
<path d="M74.5996 23.5986H92.5996V45.8903H74.5996V23.5986Z" fill="#733CA5"/>
</g>
</g>
<mask id="mask32_714_377" style="mask-type:luminance" maskUnits="userSpaceOnUse" x="81" y="32" width="17" height="17">
<path d="M81.9375 32.6304H97.8438V48.2606H81.9375V32.6304Z" fill="white"/>
</mask>
<g mask="url(#mask32_714_377)">
<mask id="mask33_714_377" style="mask-type:luminance" maskUnits="userSpaceOnUse" x="81" y="32" width="17" height="17">
<path d="M82.1976 45.802C96.4997 32.5 97.4997 33.0989 97.6976 33.5989C97.9997 34.0989 97.5987 35.1979 97.1976 35.5C96.6976 35.802 95.1976 35.5 94.9008 35.0989C94.5987 34.5989 94.9997 33.0989 95.4008 32.802C95.9008 32.5 97.4008 33 97.6976 33.401C97.9008 33.901 97.8018 34.5 97.3018 35.401C95.9997 37.901 86.6976 47.302 84.0987 48.0989C83.1976 48.401 82.4008 48.1979 82.0987 47.802C81.8018 47.401 82.1976 45.802 82.1976 45.802Z" fill="white"/>
</mask>
<g mask="url(#mask33_714_377)">
<path d="M78.0996 28.6978H101.777V52.0988H78.0996V28.6978Z" fill="#733CA5"/>
</g>
</g>
<mask id="mask34_714_377" style="mask-type:luminance" maskUnits="userSpaceOnUse" x="77" y="24" width="14" height="18">
<path d="M77.2402 24.2554H90.3652V41.7293H77.2402V24.2554Z" fill="white"/>
</mask>
<g mask="url(#mask34_714_377)">
<mask id="mask35_714_377" style="mask-type:luminance" maskUnits="userSpaceOnUse" x="77" y="24" width="14" height="18">
<path d="M77.3027 39.5C84.6986 28 86.6986 24.9011 88.0996 24.4011C88.8027 24.198 89.6986 24.4011 90.0007 24.8021C90.3027 25.198 90.4017 26.3021 90.0996 26.698C89.8027 27.099 88.3027 27.4011 87.9017 27.099C87.4017 26.8021 87.3027 25.198 87.5996 24.8021C87.9017 24.4011 89.4017 24.3021 89.9017 24.698C90.3027 25 90.4017 25.698 90.1986 26.5C89.5996 29.198 82.1986 39.698 79.8027 41.198C79.0007 41.698 78.1986 41.8021 77.8027 41.5C77.4017 41.198 77.3027 39.5 77.3027 39.5Z" fill="white"/>
</mask>
<g mask="url(#mask35_714_377)">
<path d="M73.3027 20.4009H94.3027V45.5832H73.3027V20.4009Z" fill="#733CA5"/>
</g>
</g>
<mask id="mask36_714_377" style="mask-type:luminance" maskUnits="userSpaceOnUse" x="80" y="29" width="14" height="13">
<path d="M80.0625 29.1616H93.099V41.9585H80.0625V29.1616Z" fill="white"/>
</mask>
<g mask="url(#mask36_714_377)">
<mask id="mask37_714_377" style="mask-type:luminance" maskUnits="userSpaceOnUse" x="80" y="29" width="14" height="13">
<path d="M80.5996 39.302C91.5006 28.9999 92.3027 28.9999 92.5996 29.401C93.0006 29.802 93.1985 31.302 92.8027 31.6978C92.4017 32.0989 90.8027 32.0989 90.5006 31.6978C90.0996 31.302 90.1985 29.802 90.5996 29.401C91.0006 29.0989 92.5006 29.1978 92.9017 29.5989C93.1985 29.9999 93.0996 30.901 92.9017 31.5989C92.5006 32.5989 91.3027 33.6978 90.0006 34.9999C88.1985 36.901 84.3027 41.302 82.5006 41.802C81.5996 42.0989 80.5006 41.802 80.1985 41.302C79.9017 40.901 80.5996 39.302 80.5996 39.302Z" fill="white"/>
</mask>
<g mask="url(#mask37_714_377)">
<path d="M76.1992 25.3018H96.9596V45.9007H76.1992V25.3018Z" fill="#733CA5"/>
</g>
</g>
<mask id="mask38_714_377" style="mask-type:luminance" maskUnits="userSpaceOnUse" x="83" y="24" width="16" height="14">
<path d="M83.2285 24.1304H98.0254V37.7554H83.2285V24.1304Z" fill="white"/>
</mask>
<g mask="url(#mask38_714_377)">
<mask id="mask39_714_377" style="mask-type:luminance" maskUnits="userSpaceOnUse" x="83" y="24" width="16" height="14">
<path d="M83.3012 35.3023C91.9001 26.6982 94.4991 24.4013 95.9991 24.1982C96.697 24.0003 97.4991 24.3023 97.8012 24.5992C98.0981 25.0003 98.0981 26.0992 97.8012 26.5003C97.4991 26.9013 95.9991 27.0992 95.5981 26.8023C95.197 26.4013 95.4001 24.5992 95.8012 24.3023C96.197 24.0003 97.4001 24.1982 97.697 24.5003C97.9991 24.9013 97.9991 26.0003 97.5981 26.6982C96.9001 28.0003 93.9001 29.0003 91.9991 30.5992C89.8012 32.5003 87.0981 36.8023 85.4001 37.5003C84.5981 37.8023 83.697 37.6982 83.4001 37.3023C83.0981 37.0003 83.3012 35.3023 83.3012 35.3023Z" fill="white"/>
</mask>
<g mask="url(#mask39_714_377)">
<path d="M79.3008 20.1982H101.868V41.5993H79.3008V20.1982Z" fill="#733CA5"/>
</g>
</g>
<mask id="mask40_714_377" style="mask-type:luminance" maskUnits="userSpaceOnUse" x="82" y="30" width="17" height="14">
<path d="M82.3223 30.5259H98.9004V43.1769H82.3223V30.5259Z" fill="white"/>
</mask>
<g mask="url(#mask40_714_377)">
<mask id="mask41_714_377" style="mask-type:luminance" maskUnits="userSpaceOnUse" x="82" y="30" width="17" height="14">
<path d="M83.1972 40.1979C97.5982 30.401 98.3013 30.6979 98.5982 31.099C98.9003 31.599 98.5982 33.1979 98.1972 33.401C97.6972 33.6979 96.1972 33.401 95.9003 32.901C95.5982 32.401 96.0982 31 96.4992 30.6979C96.9992 30.401 98.0982 30.599 98.4992 31C98.8013 31.401 98.9992 32.1979 98.5982 33C97.9003 34.599 93.4992 37.1979 90.9992 38.901C88.6972 40.5 85.5982 43.099 84.0982 43.099C83.3013 43.099 82.4992 42.5 82.4003 42C82.1972 41.5 83.1972 40.1979 83.1972 40.1979Z" fill="white"/>
</mask>
<g mask="url(#mask41_714_377)">
<path d="M78.4004 26.5991H102.661V47.0991H78.4004V26.5991Z" fill="#733CA5"/>
</g>
</g>
<mask id="mask42_714_377" style="mask-type:luminance" maskUnits="userSpaceOnUse" x="81" y="27" width="16" height="23">
<path d="M81.8184 27.9165H96.7819V49.6509H81.8184V27.9165Z" fill="white"/>
</mask>
<g mask="url(#mask42_714_377)">
<mask id="mask43_714_377" style="mask-type:luminance" maskUnits="userSpaceOnUse" x="81" y="27" width="16" height="23">
<path d="M81.9023 47.5989C94.8034 27.901 95.4023 27.901 95.9023 28.0989C96.3034 28.302 96.6992 28.901 96.6992 29.302C96.6992 29.802 96.1992 30.6979 95.8034 30.901C95.4023 31.0989 94.6992 31 94.3034 30.6979C94.0013 30.5 93.6003 29.901 93.6003 29.5C93.6992 29 94.3034 28.1979 94.8034 28C95.1992 27.802 95.9023 28 96.1992 28.302C96.5013 28.5989 96.6992 29.1979 96.6003 30.0989C96.1003 33.0989 87.1003 47.1979 84.5013 49C83.8034 49.5989 83.1003 49.6979 82.6003 49.5C82.1992 49.302 81.9023 47.5989 81.9023 47.5989Z" fill="white"/>
</mask>
<g mask="url(#mask43_714_377)">
<path d="M77.9023 24H100.699V53.4792H77.9023V24Z" fill="#733CA5"/>
</g>
</g>
<mask id="mask44_714_377" style="mask-type:luminance" maskUnits="userSpaceOnUse" x="70" y="24" width="27" height="20">
<path d="M70.0781 24.6719H96.5625V43.6198H70.0781V24.6719Z" fill="white"/>
</mask>
<g mask="url(#mask44_714_377)">
<mask id="mask45_714_377" style="mask-type:luminance" maskUnits="userSpaceOnUse" x="70" y="24" width="27" height="20">
<path d="M70.9017 40.8019C95.3027 24.6977 96.0996 25.0987 96.4017 25.5987C96.5996 25.9998 96.3027 27.0987 95.9017 27.3019C95.5007 27.5987 94.0996 27.4008 93.8027 26.9998C93.5007 26.5987 93.8027 25.1977 94.1986 24.9008C94.5996 24.5987 95.6986 24.6977 96.0007 24.9998C96.4017 25.4008 96.5996 26.0987 96.3027 26.8019C95.1986 29.6977 79.3027 39.4998 75.0007 41.9008C73.3027 42.9008 72.0007 43.6977 71.1986 43.4998C70.6986 43.4008 70.1986 42.6977 70.0996 42.1977C70.0996 41.8019 70.9017 40.8019 70.9017 40.8019Z" fill="white"/>
</mask>
<g mask="url(#mask45_714_377)">
<path d="M66.0996 20.8018H100.438V47.5986H66.0996V20.8018Z" fill="#733CA5"/>
</g>
</g>
<mask id="mask46_714_377" style="mask-type:luminance" maskUnits="userSpaceOnUse" x="72" y="22" width="27" height="21">
<path d="M72.4941 22.9946H98.0306V42.9061H72.4941V22.9946Z" fill="white"/>
</mask>
<g mask="url(#mask46_714_377)">
<mask id="mask47_714_377" style="mask-type:luminance" maskUnits="userSpaceOnUse" x="72" y="23" width="27" height="20">
<path d="M72.9997 40.4007C93.3018 24.5986 95.1977 22.9997 96.4008 23.0986C97.0987 23.0986 97.8018 23.6976 97.9008 24.1976C98.0987 24.5986 97.9997 25.3018 97.6977 25.5986C97.4008 25.9007 96.4008 26.1976 95.9008 25.9997C95.4997 25.9007 94.9997 25.4007 94.9997 24.9007C94.9008 24.4997 95.4008 23.4997 95.8018 23.3018C96.1977 22.9997 96.9008 22.9997 97.1977 23.3018C97.5987 23.6976 97.9008 24.9007 97.4997 25.8018C96.4997 27.6976 91.1977 29.4997 87.8018 31.9007C83.8018 34.9007 77.4997 42.0986 74.9008 42.6976C73.9008 42.9997 72.9008 42.6976 72.5987 42.3018C72.4008 41.9007 72.9997 40.4007 72.9997 40.4007Z" fill="white"/>
</mask>
<g mask="url(#mask47_714_377)">
<path d="M68.5996 19.0986H102.037V46.8018H68.5996V19.0986Z" fill="#733CA5"/>
</g>
</g>
<mask id="mask48_714_377" style="mask-type:luminance" maskUnits="userSpaceOnUse" x="73" y="24" width="23" height="17">
<path d="M73.4434 24.146H95.7559V40.3647H73.4434V24.146Z" fill="white"/>
</mask>
<g mask="url(#mask48_714_377)">
<mask id="mask49_714_377" style="mask-type:luminance" maskUnits="userSpaceOnUse" x="73" y="24" width="23" height="17">
<path d="M74 37.6982C94.401 24.3023 95.302 24.5003 95.5989 25.0003C95.901 25.4013 95.5 26.9013 95 27.0992C94.5989 27.4013 93.0989 26.9013 92.901 26.5003C92.6979 26.0003 93.1979 24.5992 93.6979 24.3023C94.0989 24.0992 95.1979 24.4013 95.5 24.8023C95.8021 25.3023 95.6979 26.1982 95.1979 27.0003C93.401 29.9013 78.5989 39.9013 75.5 40.3023C74.5989 40.4013 73.8021 40.0992 73.5989 39.6982C73.3021 39.3023 74 37.6982 74 37.6982Z" fill="white"/>
</mask>
<g mask="url(#mask49_714_377)">
<path d="M69.5996 20.3022H99.6934V44.3022H69.5996V20.3022Z" fill="#733CA5"/>
</g>
</g>
<mask id="mask50_714_377" style="mask-type:luminance" maskUnits="userSpaceOnUse" x="75" y="20" width="20" height="22">
<path d="M75.8594 20.8594H94.0417V41.7813H75.8594V20.8594Z" fill="white"/>
</mask>
<g mask="url(#mask50_714_377)">
<mask id="mask51_714_377" style="mask-type:luminance" maskUnits="userSpaceOnUse" x="75" y="20" width="20" height="22">
<path d="M75.9004 39.5988C89.0983 22.6978 90.9993 20.9998 92.1973 20.9009C92.9004 20.9009 93.5983 21.4009 93.9004 21.8019C94.0983 22.1978 93.9994 22.9009 93.8014 23.1978C93.4004 23.5988 91.9993 23.9998 91.5983 23.6978C91.1973 23.4009 90.9004 21.9009 91.3014 21.4998C91.5983 21.0988 93.0983 20.9009 93.4993 21.3019C93.9004 21.5988 93.9004 22.6978 93.5983 23.4998C92.8014 25.0988 89.1973 26.5988 86.9993 28.9009C83.9993 32.0988 80.3014 40.0988 78.1973 41.3019C77.4993 41.8019 76.6973 41.8019 76.3014 41.4998C75.9004 41.1978 75.9004 39.5988 75.9004 39.5988Z" fill="white"/>
</mask>
<g mask="url(#mask51_714_377)">
<path d="M71.9004 16.9009H97.9004V45.5415H71.9004V16.9009Z" fill="#733CA5"/>
</g>
</g>
<mask id="mask52_714_377" style="mask-type:luminance" maskUnits="userSpaceOnUse" x="75" y="20" width="20" height="24">
<path d="M75.2285 20.6196H94.5671V43.2498H75.2285V20.6196Z" fill="white"/>
</mask>
<g mask="url(#mask52_714_377)">
<mask id="mask53_714_377" style="mask-type:luminance" maskUnits="userSpaceOnUse" x="75" y="20" width="20" height="24">
<path d="M75.3008 41.099C85.9987 26.198 89.8997 21.599 91.9987 20.9011C92.8997 20.5001 93.8997 20.698 94.3008 21.099C94.5977 21.5001 94.5977 22.698 94.3008 23.0001C93.8997 23.4011 92.3997 23.599 91.9987 23.3021C91.5977 22.9011 91.4987 21.4011 91.8997 21.0001C92.1966 20.599 93.8008 20.599 94.1966 21.0001C94.4987 21.3021 94.6966 22.099 94.3997 22.9011C93.6966 24.8021 88.5977 28.198 85.8997 31.3021C82.9987 34.8021 79.8008 41.599 77.8008 42.8021C76.9987 43.3021 76.1966 43.3021 75.6966 43.0001C75.3008 42.8021 75.3008 41.099 75.3008 41.099Z" fill="white"/>
</mask>
<g mask="url(#mask53_714_377)">
<path d="M71.3008 16.9009H98.4987V47.0728H71.3008V16.9009Z" fill="#733CA5"/>
</g>
</g>
<mask id="mask54_714_377" style="mask-type:luminance" maskUnits="userSpaceOnUse" x="82" y="29" width="17" height="21">
<path d="M82.1094 29.7085H98.7865V49.7241H82.1094V29.7085Z" fill="white"/>
</mask>
<g mask="url(#mask54_714_377)">
<mask id="mask55_714_377" style="mask-type:luminance" maskUnits="userSpaceOnUse" x="82" y="29" width="17" height="21">
<path d="M82.1973 47.401C96.9994 29.6979 97.9994 29.8021 98.4004 30.1979C98.8014 30.5989 98.8014 31.8021 98.4994 32.1979C98.0983 32.5989 96.5983 32.901 96.1973 32.5989C95.6973 32.1979 95.5983 30.6979 95.9004 30.1979C96.1973 29.8021 97.4004 29.5989 97.8014 29.8021C98.3014 30.0989 98.8014 31 98.5983 32C97.9994 35.1979 87.3014 48.0989 84.4994 49.401C83.5983 49.8021 82.8014 49.6979 82.4004 49.401C81.9994 49.0989 82.1973 47.401 82.1973 47.401Z" fill="white"/>
</mask>
<g mask="url(#mask55_714_377)">
<path d="M78.1973 25.8022H102.598V53.5366H78.1973V25.8022Z" fill="#733CA5"/>
</g>
</g>
<mask id="mask56_714_377" style="mask-type:luminance" maskUnits="userSpaceOnUse" x="74" y="22" width="21" height="19">
<path d="M74.7559 22.854H94.9173V40.5467H74.7559V22.854Z" fill="white"/>
</mask>
<g mask="url(#mask56_714_377)">
<mask id="mask57_714_377" style="mask-type:luminance" maskUnits="userSpaceOnUse" x="74" y="22" width="21" height="19">
<path d="M74.9018 37.9996C93.5008 22.8017 94.3029 23.0986 94.6987 23.4996C94.9018 23.9007 94.8029 24.9996 94.5008 25.3017C94.0998 25.6976 92.5998 25.6975 92.3029 25.4007C91.9018 24.9996 92.0008 23.4996 92.4018 23.1975C92.6987 22.8017 93.8029 22.8017 94.1987 22.9996C94.5998 23.3017 95.0008 23.9996 94.8029 24.8017C94.0998 27.4996 80.0008 39.0986 76.9018 40.1975C76.0008 40.5986 75.3029 40.5986 74.9018 40.1975C74.5998 39.9007 74.9018 37.9996 74.9018 37.9996Z" fill="white"/>
</mask>
<g mask="url(#mask57_714_377)">
<path d="M70.9023 18.9995H98.7721V44.3016H70.9023V18.9995Z" fill="#733CA5"/>
</g>
</g>
<mask id="mask58_714_377" style="mask-type:luminance" maskUnits="userSpaceOnUse" x="74" y="21" width="21" height="22">
<path d="M74.1816 21H94.0202V42.9844H74.1816V21Z" fill="white"/>
</mask>
<g mask="url(#mask58_714_377)">
<mask id="mask59_714_377" style="mask-type:luminance" maskUnits="userSpaceOnUse" x="74" y="21" width="20" height="22">
<path d="M74.3005 40.6979C90.3005 22.1979 91.5974 21 92.5974 21C93.0974 21 93.5974 21.3021 93.8005 21.6979C93.9984 22.099 93.9984 23.1979 93.6964 23.5C93.3005 23.901 91.8005 23.901 91.4984 23.599C91.0974 23.1979 91.1964 21.6979 91.4984 21.401C91.8995 21.099 93.3995 21.1979 93.6964 21.599C93.9984 21.901 94.0974 22.6979 93.8005 23.401C92.9984 25.099 88.4984 27.8021 85.8005 30.599C82.5974 34 78.3995 41.8021 76.3005 42.8021C75.4984 43.099 74.6964 43 74.3995 42.599C73.9984 42.3021 74.3005 40.6979 74.3005 40.6979Z" fill="white"/>
</mask>
<g mask="url(#mask59_714_377)">
<path d="M70.3008 17H97.8997V46.7552H70.3008V17Z" fill="#733CA5"/>
</g>
</g>
<mask id="mask60_714_377" style="mask-type:luminance" maskUnits="userSpaceOnUse" x="77" y="24" width="16" height="16">
<path d="M77.3652 24.8804H92.3184V39.146H77.3652V24.8804Z" fill="white"/>
</mask>
<g mask="url(#mask60_714_377)">
<mask id="mask61_714_377" style="mask-type:luminance" maskUnits="userSpaceOnUse" x="77" y="24" width="16" height="16">
<path d="M77.6003 36.5992C90.6993 24.9013 91.6993 25.3023 92.1003 25.6981C92.4024 26.1981 92.3034 27.4013 91.9024 27.8023C91.5013 28.1981 89.6993 28.1981 89.4024 27.8023C89.0013 27.4013 89.5013 25.4013 90.0013 25.0992C90.3034 24.8023 91.1993 24.9013 91.6003 25.1981C92.0013 25.5002 92.4024 26.4013 92.1993 27.0992C92.0013 28.4013 89.6993 29.8023 88.1003 31.4013C85.6993 33.5992 81.4024 38.4013 79.5013 39.0002C78.6993 39.1981 77.8034 39.0002 77.5013 38.5992C77.1993 38.1981 77.6003 36.5992 77.6003 36.5992Z" fill="white"/>
</mask>
<g mask="url(#mask61_714_377)">
<path d="M73.502 21.0991H96.2728V43.0991H73.502V21.0991Z" fill="#733CA5"/>
</g>
</g>
<mask id="mask62_714_377" style="mask-type:luminance" maskUnits="userSpaceOnUse" x="77" y="24" width="15" height="16">
<path d="M77.4473 24.7344H91.7337V39.9635H77.4473V24.7344Z" fill="white"/>
</mask>
<g mask="url(#mask62_714_377)">
<mask id="mask63_714_377" style="mask-type:luminance" maskUnits="userSpaceOnUse" x="77" y="24" width="15" height="16">
<path d="M77.6976 37.4009C90.0987 24.4998 90.9008 24.6977 91.3018 25.0988C91.5987 25.5988 91.5987 27.1977 91.0987 27.5988C90.6976 27.9998 88.9997 27.8019 88.5987 27.3019C88.3018 26.9009 88.5987 25.1977 89.0987 24.9009C89.4997 24.5988 91.0987 24.9009 91.4997 25.4009C91.8018 25.9009 91.6977 26.5988 91.3018 27.4998C90.0987 29.9998 82.0987 38.9009 79.5987 39.8019C78.8018 39.9998 77.9008 39.9009 77.5987 39.4998C77.3018 39.0988 77.6976 37.4009 77.6976 37.4009Z" fill="white"/>
</mask>
<g mask="url(#mask63_714_377)">
<path d="M73.5996 20.8018H95.5007V43.8122H73.5996V20.8018Z" fill="#733CA5"/>
</g>
</g>
<mask id="mask64_714_377" style="mask-type:luminance" maskUnits="userSpaceOnUse" x="74" y="27" width="15" height="16">
<path d="M74.9375 27.7397H88.1458V42.1772H74.9375V27.7397Z" fill="white"/>
</mask>
<g mask="url(#mask64_714_377)">
<mask id="mask65_714_377" style="mask-type:luminance" maskUnits="userSpaceOnUse" x="74" y="27" width="15" height="16">
<path d="M87.9996 30.1978C77.0986 42.1978 76.3017 42.302 75.9007 41.9999C75.4007 41.6978 74.9996 39.9999 75.3017 39.5989C75.5986 39.0989 77.3017 38.901 77.8017 39.0989C78.1976 39.401 78.4996 40.0989 78.4996 40.5989C78.4007 41.0989 78.0986 41.802 77.5986 41.9999C77.1976 42.1978 75.9996 42.0989 75.5986 41.802C75.1976 41.4999 74.9007 40.901 74.9996 40.1978C75.3017 38.5989 79.4007 34.6978 81.4007 32.4999C83.0986 30.6978 84.9007 28.1978 86.1976 27.802C86.9007 27.6978 87.5986 27.802 87.9007 28.1978C88.1976 28.5989 87.9996 30.1978 87.9996 30.1978Z" fill="white"/>
</mask>
<g mask="url(#mask65_714_377)">
<path d="M71 23.8022H92V46.0314H71V23.8022Z" fill="#733CA5"/>
</g>
</g>
<mask id="mask66_714_377" style="mask-type:luminance" maskUnits="userSpaceOnUse" x="77" y="24" width="16" height="17">
<path d="M77.0625 24.2344H92.4271V40.0469H77.0625V24.2344Z" fill="white"/>
</mask>
<g mask="url(#mask66_714_377)">
<mask id="mask67_714_377" style="mask-type:luminance" maskUnits="userSpaceOnUse" x="77" y="24" width="16" height="17">
<path d="M77.3015 37.5C91.0984 23.901 91.9005 24.3021 92.1974 24.6979C92.4994 25.1979 92.4994 26.401 92.0984 26.8021C91.6974 27.1979 90.0984 27.401 89.5984 27C89.1974 26.5989 89.1974 24.901 89.5984 24.5C89.9994 24.0989 91.6974 24.1979 92.0984 24.5989C92.4994 25 92.3015 26 91.9005 27.0989C90.5984 29.901 81.8015 39 79.3015 39.901C78.4005 40.1979 77.5984 40 77.1974 39.5989C76.9005 39.1979 77.3015 37.5 77.3015 37.5Z" fill="white"/>
</mask>
<g mask="url(#mask67_714_377)">
<path d="M73.1973 20.0991H96.1973V43.9064H73.1973V20.0991Z" fill="#733CA5"/>
</g>
</g>
<mask id="mask68_714_377" style="mask-type:luminance" maskUnits="userSpaceOnUse" x="75" y="27" width="13" height="16">
<path d="M75.8438 27.646H87.8333V42.4168H75.8438V27.646Z" fill="white"/>
</mask>
<g mask="url(#mask68_714_377)">
<mask id="mask69_714_377" style="mask-type:luminance" maskUnits="userSpaceOnUse" x="75" y="27" width="13" height="16">
<path d="M87.5983 30.0992C77.5983 42.5992 76.9993 42.4013 76.6973 42.0992C76.1973 41.8023 75.8014 40.6982 75.9993 40.1982C76.1973 39.6982 77.6973 38.9013 78.1973 39.0992C78.6973 39.4013 79.1973 41.4013 78.9004 41.9013C78.5983 42.3023 77.3014 42.5002 76.8014 42.1982C76.3014 42.0002 75.9004 41.1982 75.9004 40.4013C76.0983 38.5992 79.6973 34.8023 81.4993 32.5992C82.9004 30.6982 84.4993 28.0992 85.6973 27.6982C86.4004 27.5002 87.4004 27.9013 87.6973 28.3023C87.9004 28.6982 87.5983 30.0992 87.5983 30.0992Z" fill="white"/>
</mask>
<g mask="url(#mask69_714_377)">
<path d="M71.9004 23.6982H91.6973V46.2868H71.9004V23.6982Z" fill="#733CA5"/>
</g>
</g>
<mask id="mask70_714_377" style="mask-type:luminance" maskUnits="userSpaceOnUse" x="75" y="27" width="13" height="15">
<path d="M75.4434 27.8647H87.2767V41.6356H75.4434V27.8647Z" fill="white"/>
</mask>
<g mask="url(#mask70_714_377)">
<mask id="mask71_714_377" style="mask-type:luminance" maskUnits="userSpaceOnUse" x="75" y="27" width="13" height="15">
<path d="M87.1988 30.5002C77.5009 41.5991 76.6988 41.6981 76.1988 41.4012C75.803 41.0002 75.4019 39.4012 75.6988 39.0002C76.0999 38.5002 77.6988 38.3023 78.1988 38.5991C78.5999 39.0002 78.6988 40.5991 78.4019 41.0991C78.0999 41.5002 76.9019 41.6981 76.4019 41.5002C75.9019 41.1981 75.4019 40.5002 75.5009 39.6981C75.6988 37.5002 82.1988 30.3023 84.5009 28.8023C85.4019 28.0991 86.5009 27.6981 86.9019 28.0002C87.4019 28.3023 87.1988 30.5002 87.1988 30.5002Z" fill="white"/>
</mask>
<g mask="url(#mask71_714_377)">
<path d="M71.5 24H91.3021V45.5H71.5V24Z" fill="#733CA5"/>
</g>
</g>
<mask id="mask72_714_377" style="mask-type:luminance" maskUnits="userSpaceOnUse" x="47" y="29" width="45" height="44">
<path d="M47.9785 29.5259H91.9994V72.5259H47.9785V29.5259Z" fill="white"/>
</mask>
<g mask="url(#mask72_714_377)">
<path d="M89.515 42.4009L86.5306 45.3853C87.1712 47.2238 87.5202 49.1978 87.5202 51.2498C87.5202 61.0832 79.5202 69.0832 69.6868 69.0832C59.8535 69.0832 51.8535 61.0832 51.8535 51.2498C51.8535 41.4165 59.8535 33.4165 69.6868 33.4165C74.3743 33.4165 78.6452 35.2342 81.8327 38.203L84.5827 35.4582C82.6921 33.6717 80.5306 32.2603 78.14 31.2446C75.4629 30.1144 72.6191 29.5415 69.6868 29.5415C66.7546 29.5415 63.9108 30.1144 61.2337 31.2446C58.6504 32.3384 56.3275 33.9061 54.3327 35.9009C52.3431 37.8905 50.7754 40.2134 49.6816 42.8019C48.5514 45.479 47.9785 48.3228 47.9785 51.2498C47.9785 54.1821 48.5514 57.0259 49.6816 59.703C50.7754 62.2863 52.3431 64.6092 54.3327 66.604C56.3275 68.5988 58.6504 70.1613 61.2337 71.255C63.9108 72.3853 66.7546 72.9634 69.6868 72.9634C72.6191 72.9634 75.4629 72.3853 78.14 71.255C80.7233 70.1613 83.0462 68.5988 85.041 66.604C87.0306 64.6092 88.5983 62.2863 89.6921 59.703C90.8223 57.0259 91.4004 54.1821 91.4004 51.2498C91.4004 48.3228 90.8223 45.479 89.6921 42.8019C89.6348 42.6665 89.5775 42.5311 89.515 42.4009Z" fill="white"/>
</g>
<mask id="mask73_714_377" style="mask-type:luminance" maskUnits="userSpaceOnUse" x="57" y="33" width="36" height="28">
<path d="M57.334 33H92.9798V61H57.334V33Z" fill="white"/>
</mask>
<g mask="url(#mask73_714_377)">
<path d="M69.7194 59.9165L58.3965 48.5884L62.0475 44.9321L69.7194 52.604L88.9277 33.4009L92.5788 37.0519L69.7194 59.9165Z" fill="white"/>
</g>
</svg>
